<svg xmlns="http://www.w3.org/2000/svg" width="15" height="12" viewBox="0 -0.5 15 12"><g fill="#555"><path d="M6.212 3.191c-.31-.185-.709.039-.709.403v4.375c0 .365.399.587.709.403L9.88 6.188c.305-.182.304-.624 0-.806l-3.668-2.19zm.229 3.953V4.42l2.284 1.365-2.284 1.36z"/><path d="M12.44.326c-2.908-.432-6.97-.432-9.88 0C1.396.498.48 1.412.28 2.598-.094 4.8-.094 6.763.28 8.964c.2 1.187 1.116 2.1 2.28 2.273 1.458.216 3.203.324 4.947.324 1.741 0 3.482-.107 4.934-.323 1.162-.173 2.078-1.086 2.28-2.273.372-2.202.372-4.166 0-6.367-.2-1.186-1.117-2.1-2.281-2.272zm1.356 8.483c-.133.785-.733 1.389-1.493 1.501-2.824.42-6.774.42-9.606 0-.76-.114-1.361-.717-1.494-1.502-.359-2.121-.359-3.932 0-6.054.133-.785.733-1.388 1.495-1.502C4.112 1.043 5.806.938 7.5.938c1.695 0 3.39.105 4.803.315.761.113 1.362.716 1.494 1.5.359 2.123.359 3.934 0 6.056z"/></g></svg>