<svg xmlns="http://www.w3.org/2000/svg" width="15" height="10" viewBox="0 0 15 10"><g fill="#555"><path d="M12.036 1.964l-4.73 4.169-4.733-4.17c-.188-.165-.475-.147-.641.041-.166.189-.148.476.04.642L7.005 7.08c.086.075.193.113.3.113.108 0 .215-.038.301-.113l5.032-4.434c.188-.166.206-.453.04-.642-.166-.188-.453-.206-.642-.04z"/><path d="M13.246.032H1.364C.612.032 0 .644 0 1.396v7.212c0 .752.612 1.364 1.364 1.364h11.882c.752 0 1.364-.612 1.364-1.364V1.396c0-.752-.612-1.364-1.364-1.364zm.455 8.576c0 .25-.204.454-.455.454H1.364c-.251 0-.455-.203-.455-.454V1.396c0-.25.204-.455.455-.455h11.882c.25 0 .455.204.455.455v7.212z"/></g></svg>