<svg xmlns="http://www.w3.org/2000/svg" width="15" height="15" viewBox="0 -1 15 15"><g fill="#555"><path d="M12.48 14.062H2.52c-.744 0-1.348-.605-1.348-1.348v-7.09c0-.259.21-.469.469-.469s.468.21.468.469v7.09c0 .227.184.41.41.41h9.961c.227 0 .41-.183.41-.41v-7.09c0-.259.21-.469.47-.469.258 0 .468.21.468.469v7.09c0 .743-.604 1.348-1.348 1.348z"/><path d="M14.531 7.264c-.12 0-.24-.045-.331-.137l-5.83-5.83c-.48-.48-1.26-.48-1.74 0L.8 7.127c-.183.183-.48.183-.663 0-.183-.183-.183-.48 0-.663l5.83-5.83c.845-.845 2.22-.845 3.066 0l5.83 5.83c.183.183.183.48 0 .663-.092.092-.212.137-.332.137zM9.375 14.062h-3.75c-.259 0-.469-.21-.469-.469v-4.16c0-.808.657-1.465 1.465-1.465H8.38c.808 0 1.465.657 1.465 1.465v4.16c0 .26-.21.469-.469.469zm-3.281-.937h2.812V9.433c0-.29-.236-.527-.527-.527H6.62c-.29 0-.527.236-.527.527v3.692z"/></g></svg>